<?xml version="1.0" encoding="utf-8"?>
<!-- Generator: Adobe Illustrator 16.0.4, SVG Export Plug-In . SVG Version: 6.00 Build 0)  -->
<!DOCTYPE svg PUBLIC "-//W3C//DTD SVG 1.1//EN" "http://www.w3.org/Graphics/SVG/1.1/DTD/svg11.dtd">
<svg version="1.1"
	 id="svg1430" xmlns:rdf="http://www.w3.org/1999/02/22-rdf-syntax-ns#" xmlns:svg="http://www.w3.org/2000/svg" xmlns:sodipodi="http://sodipodi.sourceforge.net/DTD/sodipodi-0.dtd" xmlns:cc="http://web.resource.org/cc/" xmlns:inkscape="http://www.inkscape.org/namespaces/inkscape" xmlns:dc="http://purl.org/dc/elements/1.1/" sodipodi:docbase="/home/jimmac/src/cvs/tango-icon-theme/scalable/categories" sodipodi:version="0.32" sodipodi:docname="applications-multimedia.svg" inkscape:version="0.43+devel"
	 xmlns="http://www.w3.org/2000/svg" xmlns:xlink="http://www.w3.org/1999/xlink" x="0px" y="0px" width="18px" height="18px"
	 viewBox="15 15 18 18" enable-background="new 15 15 18 18" xml:space="preserve">
<rect id="normal_x5F_on" x="2.334" y="2.333" display="none" fill="none" stroke="#000000" width="43.332" height="43.334"/>
<path fill="#333333" d="M27.144,23.428h-0.43v-1.286c0-1.497-1.217-2.714-2.714-2.714c-1.496,0-2.714,1.218-2.714,2.714v1.286
	h-0.428c-0.473,0-0.857,0.384-0.857,0.856v3.428c0,0.474,0.384,0.857,0.857,0.857h6.286c0.473,0,0.856-0.384,0.856-0.857v-3.428
	C28,23.812,27.616,23.428,27.144,23.428z M25.287,23.428h-2.572v-1.286c0-0.709,0.576-1.286,1.285-1.286s1.287,0.577,1.287,1.286
	V23.428z"/>
</svg>
