<?xml version="1.0" encoding="utf-8"?>
<!-- Generator: Adobe Illustrator 16.0.4, SVG Export Plug-In . SVG Version: 6.00 Build 0)  -->
<!DOCTYPE svg PUBLIC "-//W3C//DTD SVG 1.1//EN" "http://www.w3.org/Graphics/SVG/1.1/DTD/svg11.dtd">
<svg version="1.1"
	 id="svg4804" xmlns:inkscape="http://www.inkscape.org/namespaces/inkscape" xmlns:dc="http://purl.org/dc/elements/1.1/" xmlns:cc="http://web.resource.org/cc/" xmlns:sodipodi="http://sodipodi.sourceforge.net/DTD/sodipodi-0.dtd" xmlns:rdf="http://www.w3.org/1999/02/22-rdf-syntax-ns#" xmlns:svg="http://www.w3.org/2000/svg" sodipodi:version="0.32" sodipodi:docbase="/home/lapo/Desktop/inkscape/22x22" inkscape:version="0.44" sodipodi:docname="node-break.svg"
	 xmlns="http://www.w3.org/2000/svg" xmlns:xlink="http://www.w3.org/1999/xlink" x="0px" y="0px" width="100px" height="100px"
	 viewBox="-39 -39 100 100" enable-background="new -39 -39 100 100" xml:space="preserve">
<image display="none" overflow="visible" width="32" height="32" xlink:href="D172A3B4FAFF66D6.png"  transform="matrix(0.6823 0 0 0.6823 0.0112 0)">
</image>
<g>
	<g>
		<g>
			<line fill="none" stroke="#666666" stroke-width="2.2727" x1="-39" y1="31.244" x2="61" y2="31.244"/>
			<line fill="none" stroke="#666666" stroke-width="2.2727" x1="-39" y1="56.838" x2="61" y2="56.838"/>
			<line fill="none" stroke="#666666" stroke-width="2.2727" x1="-35.269" y1="31.244" x2="-35.269" y2="56.918"/>
			<line fill="none" stroke="#666666" stroke-width="2.2727" x1="-12.247" y1="31.244" x2="-12.247" y2="56.918"/>
			<line fill="none" stroke="#666666" stroke-width="2.2727" x1="10.78" y1="31.244" x2="10.78" y2="56.918"/>
			<line fill="none" stroke="#666666" stroke-width="2.2727" x1="56.836" y1="31.244" x2="56.836" y2="56.918"/>
			<line fill="none" stroke="#666666" stroke-width="2.2727" x1="33.807" y1="31.244" x2="33.807" y2="56.918"/>
		</g>
		<g>
			<line fill="none" stroke="#0066CC" stroke-width="6.8182" x1="-2.825" y1="44.086" x2="-39" y2="44.086"/>
			<rect x="16.305" y="31.91" fill="#0066CC" width="18.102" height="24.342"/>
			<line fill="none" stroke="#0066CC" stroke-width="6.8182" x1="61" y1="43.166" x2="33.909" y2="43.166"/>
		</g>
	</g>
	<g>
		<g>
			
				<line fill="none" stroke="#0066CC" stroke-width="6.8182" stroke-linecap="round" x1="-2.825" y1="44.031" x2="-0.758" y2="39.982"/>
			
				<line fill="none" stroke="#0066CC" stroke-width="6.8182" stroke-linecap="round" stroke-dasharray="9.1584,9.1584" x1="3.406" y1="31.826" x2="9.652" y2="19.59"/>
			
				<line fill="none" stroke="#0066CC" stroke-width="6.8182" stroke-linecap="round" x1="11.734" y1="15.512" x2="13.801" y2="11.463"/>
		</g>
	</g>
	<g>
		
			<line fill="none" stroke="#00CC00" stroke-width="4.5455" stroke-linecap="round" stroke-miterlimit="10" x1="-7.182" y1="-6.112" x2="0.722" y2="-6.112"/>
		
			<line fill="none" stroke="#00CC00" stroke-width="4.5455" stroke-linecap="round" stroke-miterlimit="10" x1="42.534" y1="-6.112" x2="50.436" y2="-6.112"/>
	</g>
	<g>
		
			<line fill="none" stroke="#00CC00" stroke-width="4.5455" stroke-linecap="round" stroke-miterlimit="10" x1="1.256" y1="14.26" x2="6.845" y2="8.667"/>
		
			<line fill="none" stroke="#00CC00" stroke-width="4.5455" stroke-linecap="round" stroke-miterlimit="10" x1="36.408" y1="-20.896" x2="41.997" y2="-26.482"/>
	</g>
	<g>
		
			<line fill="none" stroke="#00CC00" stroke-width="4.5455" stroke-linecap="round" stroke-miterlimit="10" x1="1.256" y1="-26.484" x2="6.845" y2="-20.896"/>
		
			<line fill="none" stroke="#00CC00" stroke-width="4.5455" stroke-linecap="round" stroke-miterlimit="10" x1="36.408" y1="8.672" x2="41.997" y2="14.26"/>
	</g>
	<g>
		<circle fill="#00CC00" cx="21.627" cy="-6.114" r="15.251"/>
		<path opacity="0.5" fill="#FFFFFF" enable-background="new    " d="M21.627-21.326c-8.426,0-15.252,6.827-15.252,15.25
			c0,1.542,0.231,3.03,0.657,4.43c10.173,0,14.542-9.289,29.039-9.289C34.043-16.972,28.348-21.326,21.627-21.326z"/>
	</g>
	<g>
		
			<line fill="none" stroke="#00CC00" stroke-width="4.5455" stroke-linecap="round" stroke-miterlimit="10" x1="21.627" y1="22.693" x2="21.627" y2="14.793"/>
		
			<line fill="none" stroke="#00CC00" stroke-width="4.5455" stroke-linecap="round" stroke-miterlimit="10" x1="21.627" y1="-27.017" x2="21.627" y2="-34.918"/>
	</g>
</g>
</svg>
