<?xml version="1.0" encoding="utf-8"?>
<!-- Generator: Adobe Illustrator 15.0.0, SVG Export Plug-In . SVG Version: 6.00 Build 0)  -->
<!DOCTYPE svg PUBLIC "-//W3C//DTD SVG 1.1//EN" "http://www.w3.org/Graphics/SVG/1.1/DTD/svg11.dtd">
<svg version="1.1"
	 id="svg1430" xmlns:svg="http://www.w3.org/2000/svg" xmlns:dc="http://purl.org/dc/elements/1.1/" sodipodi:docname="applications-multimedia.svg" inkscape:version="0.43+devel" xmlns:sodipodi="http://sodipodi.sourceforge.net/DTD/sodipodi-0.dtd" sodipodi:docbase="/home/jimmac/src/cvs/tango-icon-theme/scalable/categories" sodipodi:version="0.32" xmlns:rdf="http://www.w3.org/1999/02/22-rdf-syntax-ns#" xmlns:cc="http://web.resource.org/cc/" xmlns:inkscape="http://www.inkscape.org/namespaces/inkscape"
	 xmlns="http://www.w3.org/2000/svg" xmlns:xlink="http://www.w3.org/1999/xlink" x="0px" y="0px" width="48px" height="48px"
	 viewBox="0 0 48 48" enable-background="new 0 0 48 48" xml:space="preserve">
<g>
	<g>
		<g>
			<path fill="#800000" d="M42.503,34.951V35c0,4.898-3.749,9.049-9.022,9.049c-2.625,0-4.375-0.625-5.975-1.775
				c-0.299-0.225-0.624-0.65-0.624-1.25c0-0.824,0.675-1.523,1.524-1.523c0.4,0,0.699,0.174,0.949,0.35
				c1.125,0.824,2.35,1.375,4.25,1.375c3.224,0,5.674-2.824,5.674-6.174V35c0-3.598-2.375-6.248-5.949-6.248
				c-1.649,0-3.149,0.525-4.225,1.324v3.275h3.449c0.75,0,1.375,0.574,1.375,1.324s-0.625,1.35-1.375,1.35h-4.873
				c-0.875,0-1.55-0.676-1.55-1.549v-4.674c0-0.875,0.351-1.5,1.075-1.951c1.499-1,3.599-1.898,6.223-1.898
				C38.904,25.953,42.503,29.852,42.503,34.951z"/>
		</g>
	</g>
	<g>
		<g>
			<path fill="#800000" d="M15.645,40.777h4.249c0.8,0,1.424,0.65,1.424,1.426c0,0.773-0.625,1.424-1.424,1.424H8.271
				c-0.775,0-1.4-0.65-1.4-1.424c0-0.775,0.625-1.426,1.4-1.426h4.274V27.531c0-0.85,0.7-1.525,1.549-1.525
				c0.85,0,1.55,0.676,1.55,1.525V40.777z"/>
		</g>
	</g>
	<g>
		<path fill="#003F80" d="M5.697,20.653l6.499-14.497c0.35-0.775,0.975-1.25,1.85-1.25h0.15c0.875,0,1.475,0.475,1.825,1.25
			l6.499,14.497c0.125,0.225,0.175,0.45,0.175,0.65c0,0.825-0.625,1.475-1.45,1.475c-0.725,0-1.225-0.425-1.5-1.075l-1.425-3.274
			H9.821l-1.475,3.375c-0.25,0.625-0.775,0.975-1.424,0.975c-0.8,0-1.425-0.625-1.425-1.425C5.497,21.128,5.572,20.903,5.697,20.653
			z M17.144,15.705L14.07,8.631l-3.074,7.073H17.144z"/>
	</g>
	<g>
		<path fill="#003F80" d="M26.444,13.955v-0.05c0-4.974,3.724-9.047,9.022-9.047c2.699,0,4.475,0.8,5.999,1.974
			c0.325,0.25,0.6,0.675,0.6,1.225c0,0.85-0.675,1.5-1.524,1.5c-0.425,0-0.725-0.15-0.925-0.3c-1.2-0.975-2.499-1.574-4.174-1.574
			c-3.324,0-5.774,2.749-5.774,6.173v0.05c0,3.424,2.425,6.199,5.774,6.199c1.849,0,3.099-0.6,4.374-1.675
			c0.225-0.2,0.549-0.35,0.924-0.35c0.775,0,1.45,0.65,1.45,1.424c0,0.475-0.226,0.85-0.5,1.1c-1.649,1.449-3.524,2.349-6.349,2.349
			C30.244,22.953,26.444,18.979,26.444,13.955z"/>
	</g>
</g>
</svg>
