<?xml version="1.0" encoding="utf-8"?>
<!-- Generator: Adobe Illustrator 16.0.4, SVG Export Plug-In . SVG Version: 6.00 Build 0)  -->
<!DOCTYPE svg PUBLIC "-//W3C//DTD SVG 1.1//EN" "http://www.w3.org/Graphics/SVG/1.1/DTD/svg11.dtd">
<svg version="1.1"
	 id="svg1430" sodipodi:docbase="/home/jimmac/src/cvs/tango-icon-theme/scalable/categories" sodipodi:version="0.32" sodipodi:docname="applications-multimedia.svg" inkscape:version="0.43+devel" xmlns:svg="http://www.w3.org/2000/svg" xmlns:cc="http://web.resource.org/cc/" xmlns:rdf="http://www.w3.org/1999/02/22-rdf-syntax-ns#" xmlns:sodipodi="http://sodipodi.sourceforge.net/DTD/sodipodi-0.dtd" xmlns:dc="http://purl.org/dc/elements/1.1/" xmlns:inkscape="http://www.inkscape.org/namespaces/inkscape"
	 xmlns="http://www.w3.org/2000/svg" xmlns:xlink="http://www.w3.org/1999/xlink" x="0px" y="0px" width="48px" height="48px"
	 viewBox="0 0 48 48" enable-background="new 0 0 48 48" xml:space="preserve">
<path fill="#333333" d="M48,43.044C48,45.781,45.781,48,43.044,48H4.956C2.219,48,0,45.781,0,43.044V4.956C0,2.219,2.219,0,4.956,0
	h38.088C45.781,0,48,2.219,48,4.956V43.044z"/>
<g>
	<g id="circles" display="none" opacity="0.25">
		
			<circle display="inline" fill="#CCCCCC" stroke="#FFFFFF" stroke-width="0.375" stroke-miterlimit="10" cx="11.372" cy="-6.667" r="7.5"/>
		
			<circle display="inline" fill="#CCCCCC" stroke="#FFFFFF" stroke-width="0.375" stroke-miterlimit="10" cx="36.871" cy="-6.667" r="7.5"/>
		
			<circle display="inline" fill="#CCCCCC" stroke="#FFFFFF" stroke-width="0.375" stroke-miterlimit="10" cx="62.371" cy="-6.667" r="7.5"/>
		
			<circle display="inline" fill="#CCCCCC" stroke="#FFFFFF" stroke-width="0.375" stroke-miterlimit="10" cx="-1.378" cy="-14.167" r="7.5"/>
		
			<circle display="inline" fill="#CCCCCC" stroke="#FFFFFF" stroke-width="0.375" stroke-miterlimit="10" cx="24.122" cy="-14.167" r="7.5"/>
		
			<circle display="inline" fill="#CCCCCC" stroke="#FFFFFF" stroke-width="0.375" stroke-miterlimit="10" cx="49.621" cy="-14.167" r="7.5"/>
		
			<circle display="inline" fill="#CCCCCC" stroke="#FFFFFF" stroke-width="0.375" stroke-miterlimit="10" cx="-1.378" cy="30.833" r="7.5"/>
		
			<circle display="inline" fill="#CCCCCC" stroke="#FFFFFF" stroke-width="0.375" stroke-miterlimit="10" cx="24.122" cy="30.833" r="7.5"/>
		
			<circle display="inline" fill="#CCCCCC" stroke="#FFFFFF" stroke-width="0.375" stroke-miterlimit="10" cx="49.621" cy="30.833" r="7.5"/>
		
			<circle display="inline" fill="#CCCCCC" stroke="#FFFFFF" stroke-width="0.375" stroke-miterlimit="10" cx="-1.378" cy="60.832" r="7.5"/>
		
			<circle display="inline" fill="#CCCCCC" stroke="#FFFFFF" stroke-width="0.375" stroke-miterlimit="10" cx="24.122" cy="60.832" r="7.5"/>
		
			<circle display="inline" fill="#CCCCCC" stroke="#FFFFFF" stroke-width="0.375" stroke-miterlimit="10" cx="49.621" cy="60.832" r="7.5"/>
		
			<circle display="inline" fill="#CCCCCC" stroke="#FFFFFF" stroke-width="0.375" stroke-miterlimit="10" cx="75.121" cy="60.832" r="7.5"/>
		
			<circle display="inline" fill="#CCCCCC" stroke="#FFFFFF" stroke-width="0.375" stroke-miterlimit="10" cx="-1.378" cy="75.832" r="7.5"/>
		
			<circle display="inline" fill="#CCCCCC" stroke="#FFFFFF" stroke-width="0.375" stroke-miterlimit="10" cx="24.122" cy="75.832" r="7.5"/>
		
			<circle display="inline" fill="#CCCCCC" stroke="#FFFFFF" stroke-width="0.375" stroke-miterlimit="10" cx="49.621" cy="75.832" r="7.5"/>
		
			<circle display="inline" fill="#CCCCCC" stroke="#FFFFFF" stroke-width="0.375" stroke-miterlimit="10" cx="75.121" cy="75.832" r="7.5"/>
		
			<circle display="inline" fill="#CCCCCC" stroke="#FFFFFF" stroke-width="0.375" stroke-miterlimit="10" cx="-27.049" cy="60.832" r="7.5"/>
		
			<circle display="inline" fill="#CCCCCC" stroke="#FFFFFF" stroke-width="0.375" stroke-miterlimit="10" cx="-27.049" cy="75.832" r="7.5"/>
		
			<circle display="inline" fill="#CCCCCC" stroke="#FFFFFF" stroke-width="0.375" stroke-miterlimit="10" cx="-14.128" cy="-6.667" r="7.5"/>
		
			<circle display="inline" fill="#CCCCCC" stroke="#FFFFFF" stroke-width="0.375" stroke-miterlimit="10" cx="-14.128" cy="8.333" r="7.5"/>
		
			<circle display="inline" fill="#CCCCCC" stroke="#FFFFFF" stroke-width="0.375" stroke-miterlimit="10" cx="-1.378" cy="15.833" r="7.5"/>
		
			<circle display="inline" fill="#CCCCCC" stroke="#FFFFFF" stroke-width="0.375" stroke-miterlimit="10" cx="24.122" cy="15.833" r="7.5"/>
		
			<circle display="inline" fill="#CCCCCC" stroke="#FFFFFF" stroke-width="0.375" stroke-miterlimit="10" cx="49.621" cy="15.833" r="7.5"/>
		
			<circle display="inline" fill="#CCCCCC" stroke="#FFFFFF" stroke-width="0.375" stroke-miterlimit="10" cx="75.121" cy="30.833" r="7.5"/>
		
			<circle display="inline" fill="#CCCCCC" stroke="#FFFFFF" stroke-width="0.375" stroke-miterlimit="10" cx="-27.049" cy="30.833" r="7.5"/>
		
			<circle display="inline" fill="#CCCCCC" stroke="#FFFFFF" stroke-width="0.375" stroke-miterlimit="10" cx="75.121" cy="15.833" r="7.5"/>
		
			<circle display="inline" fill="#CCCCCC" stroke="#FFFFFF" stroke-width="0.375" stroke-miterlimit="10" cx="-27.049" cy="15.833" r="7.5"/>
		
			<circle display="inline" fill="#CCCCCC" stroke="#FFFFFF" stroke-width="0.375" stroke-miterlimit="10" cx="11.372" cy="8.333" r="7.5"/>
		
			<circle display="inline" fill="#CCCCCC" stroke="#FFFFFF" stroke-width="0.375" stroke-miterlimit="10" cx="36.871" cy="8.333" r="7.5"/>
		
			<circle display="inline" fill="#CCCCCC" stroke="#FFFFFF" stroke-width="0.375" stroke-miterlimit="10" cx="62.371" cy="8.333" r="7.5"/>
		
			<circle display="inline" fill="#CCCCCC" stroke="#FFFFFF" stroke-width="0.375" stroke-miterlimit="10" cx="-14.128" cy="38.332" r="7.5"/>
		
			<circle display="inline" fill="#CCCCCC" stroke="#FFFFFF" stroke-width="0.375" stroke-miterlimit="10" cx="11.372" cy="38.332" r="7.5"/>
		
			<circle display="inline" fill="#CCCCCC" stroke="#FFFFFF" stroke-width="0.375" stroke-miterlimit="10" cx="36.871" cy="38.332" r="7.5"/>
		
			<circle display="inline" fill="#CCCCCC" stroke="#FFFFFF" stroke-width="0.375" stroke-miterlimit="10" cx="62.371" cy="38.332" r="7.5"/>
		
			<circle display="inline" fill="#CCCCCC" stroke="#FFFFFF" stroke-width="0.375" stroke-miterlimit="10" cx="11.372" cy="83.332" r="7.5"/>
		
			<circle display="inline" fill="#CCCCCC" stroke="#FFFFFF" stroke-width="0.375" stroke-miterlimit="10" cx="36.871" cy="83.332" r="7.5"/>
		
			<circle display="inline" fill="#CCCCCC" stroke="#FFFFFF" stroke-width="0.375" stroke-miterlimit="10" cx="62.371" cy="83.332" r="7.5"/>
		
			<circle display="inline" fill="#CCCCCC" stroke="#FFFFFF" stroke-width="0.375" stroke-miterlimit="10" cx="-14.128" cy="53.332" r="7.5"/>
		
			<circle display="inline" fill="#CCCCCC" stroke="#FFFFFF" stroke-width="0.375" stroke-miterlimit="10" cx="-14.128" cy="83.332" r="7.5"/>
		
			<circle display="inline" fill="#CCCCCC" stroke="#FFFFFF" stroke-width="0.375" stroke-miterlimit="10" cx="11.372" cy="53.332" r="7.5"/>
		
			<circle display="inline" fill="#CCCCCC" stroke="#FFFFFF" stroke-width="0.375" stroke-miterlimit="10" cx="36.871" cy="53.332" r="7.5"/>
		
			<circle display="inline" fill="#CCCCCC" stroke="#FFFFFF" stroke-width="0.375" stroke-miterlimit="10" cx="62.371" cy="53.332" r="7.5"/>
	</g>
	<g id="circles_1_" display="none">
		
			<circle display="inline" fill="none" stroke="#FFFFFF" stroke-width="0.375" stroke-miterlimit="10" cx="11.372" cy="-6.667" r="7.5"/>
		
			<circle display="inline" fill="none" stroke="#FFFFFF" stroke-width="0.375" stroke-miterlimit="10" cx="36.871" cy="-6.667" r="7.5"/>
		
			<circle display="inline" fill="none" stroke="#FFFFFF" stroke-width="0.375" stroke-miterlimit="10" cx="62.371" cy="-6.667" r="7.5"/>
		
			<circle display="inline" fill="none" stroke="#FFFFFF" stroke-width="0.375" stroke-miterlimit="10" cx="-1.378" cy="-14.167" r="7.5"/>
		
			<circle display="inline" fill="none" stroke="#FFFFFF" stroke-width="0.375" stroke-miterlimit="10" cx="24.122" cy="-14.167" r="7.5"/>
		
			<circle display="inline" fill="none" stroke="#FFFFFF" stroke-width="0.375" stroke-miterlimit="10" cx="49.621" cy="-14.167" r="7.5"/>
		
			<circle display="inline" fill="none" stroke="#FFFFFF" stroke-width="0.375" stroke-miterlimit="10" cx="-1.378" cy="30.833" r="7.5"/>
		
			<circle display="inline" fill="none" stroke="#FFFFFF" stroke-width="0.375" stroke-miterlimit="10" cx="24.122" cy="30.833" r="7.5"/>
		
			<circle display="inline" fill="none" stroke="#FFFFFF" stroke-width="0.375" stroke-miterlimit="10" cx="49.621" cy="30.833" r="7.5"/>
		
			<circle display="inline" fill="none" stroke="#FFFFFF" stroke-width="0.375" stroke-miterlimit="10" cx="-1.378" cy="60.832" r="7.5"/>
		
			<circle display="inline" fill="none" stroke="#FFFFFF" stroke-width="0.375" stroke-miterlimit="10" cx="24.122" cy="60.832" r="7.5"/>
		
			<circle display="inline" fill="none" stroke="#FFFFFF" stroke-width="0.375" stroke-miterlimit="10" cx="49.621" cy="60.832" r="7.5"/>
		
			<circle display="inline" fill="none" stroke="#FFFFFF" stroke-width="0.375" stroke-miterlimit="10" cx="75.121" cy="60.832" r="7.5"/>
		
			<circle display="inline" fill="none" stroke="#FFFFFF" stroke-width="0.375" stroke-miterlimit="10" cx="-1.378" cy="75.832" r="7.5"/>
		
			<circle display="inline" fill="none" stroke="#FFFFFF" stroke-width="0.375" stroke-miterlimit="10" cx="24.122" cy="75.832" r="7.5"/>
		
			<circle display="inline" fill="none" stroke="#FFFFFF" stroke-width="0.375" stroke-miterlimit="10" cx="49.621" cy="75.832" r="7.5"/>
		
			<circle display="inline" fill="none" stroke="#FFFFFF" stroke-width="0.375" stroke-miterlimit="10" cx="75.121" cy="75.832" r="7.5"/>
		
			<circle display="inline" fill="none" stroke="#FFFFFF" stroke-width="0.375" stroke-miterlimit="10" cx="-14.128" cy="-6.667" r="7.5"/>
		
			<circle display="inline" fill="none" stroke="#FFFFFF" stroke-width="0.375" stroke-miterlimit="10" cx="-14.128" cy="8.333" r="7.5"/>
		
			<circle display="inline" fill="none" stroke="#FFFFFF" stroke-width="0.375" stroke-miterlimit="10" cx="-1.378" cy="15.833" r="7.5"/>
		
			<circle display="inline" fill="none" stroke="#FFFFFF" stroke-width="0.375" stroke-miterlimit="10" cx="24.122" cy="15.833" r="7.5"/>
		
			<circle display="inline" fill="none" stroke="#FFFFFF" stroke-width="0.375" stroke-miterlimit="10" cx="49.621" cy="15.833" r="7.5"/>
		
			<circle display="inline" fill="none" stroke="#FFFFFF" stroke-width="0.375" stroke-miterlimit="10" cx="75.121" cy="30.833" r="7.5"/>
		
			<circle display="inline" fill="none" stroke="#FFFFFF" stroke-width="0.375" stroke-miterlimit="10" cx="75.121" cy="15.833" r="7.5"/>
		
			<circle display="inline" fill="none" stroke="#FFFFFF" stroke-width="0.375" stroke-miterlimit="10" cx="11.372" cy="8.333" r="7.5"/>
		
			<circle display="inline" fill="none" stroke="#FFFFFF" stroke-width="0.375" stroke-miterlimit="10" cx="36.871" cy="8.333" r="7.5"/>
		
			<circle display="inline" fill="none" stroke="#FFFFFF" stroke-width="0.375" stroke-miterlimit="10" cx="62.371" cy="8.333" r="7.5"/>
		
			<circle display="inline" fill="none" stroke="#FFFFFF" stroke-width="0.375" stroke-miterlimit="10" cx="-14.128" cy="38.332" r="7.5"/>
		
			<circle display="inline" fill="none" stroke="#FFFFFF" stroke-width="0.375" stroke-miterlimit="10" cx="11.372" cy="38.332" r="7.5"/>
		
			<circle display="inline" fill="none" stroke="#FFFFFF" stroke-width="0.375" stroke-miterlimit="10" cx="36.871" cy="38.332" r="7.5"/>
		
			<circle display="inline" fill="none" stroke="#FFFFFF" stroke-width="0.375" stroke-miterlimit="10" cx="62.371" cy="38.332" r="7.5"/>
		
			<circle display="inline" fill="none" stroke="#FFFFFF" stroke-width="0.375" stroke-miterlimit="10" cx="11.372" cy="83.332" r="7.5"/>
		
			<circle display="inline" fill="none" stroke="#FFFFFF" stroke-width="0.375" stroke-miterlimit="10" cx="36.871" cy="83.332" r="7.5"/>
		
			<circle display="inline" fill="none" stroke="#FFFFFF" stroke-width="0.375" stroke-miterlimit="10" cx="62.371" cy="83.332" r="7.5"/>
		
			<circle display="inline" fill="none" stroke="#FFFFFF" stroke-width="0.375" stroke-miterlimit="10" cx="-14.128" cy="53.332" r="7.5"/>
		
			<circle display="inline" fill="none" stroke="#FFFFFF" stroke-width="0.375" stroke-miterlimit="10" cx="11.372" cy="53.332" r="7.5"/>
		
			<circle display="inline" fill="none" stroke="#FFFFFF" stroke-width="0.375" stroke-miterlimit="10" cx="36.871" cy="53.332" r="7.5"/>
		
			<circle display="inline" fill="none" stroke="#FFFFFF" stroke-width="0.375" stroke-miterlimit="10" cx="62.371" cy="53.332" r="7.5"/>
	</g>
	<g id="line-guides" display="none">
		
			<polygon display="inline" opacity="0.5" fill="none" stroke="#CCCCCC" stroke-width="1.5" stroke-linecap="round" stroke-miterlimit="10" points="
			11.201,8.333 -1.549,15.833 -14.299,8.333 -14.299,-6.667 -1.549,-14.167 11.201,-6.667 		"/>
		
			<polygon display="inline" opacity="0.5" fill="none" stroke="#CCCCCC" stroke-width="1.5" stroke-linecap="round" stroke-miterlimit="10" points="
			36.701,8.333 23.951,15.833 11.201,8.333 11.201,-6.667 23.951,-14.167 36.701,-6.667 		"/>
		
			<polygon display="inline" opacity="0.5" fill="none" stroke="#CCCCCC" stroke-width="1.5" stroke-linecap="round" stroke-miterlimit="10" points="
			62.201,8.333 49.451,15.833 36.701,8.333 36.701,-6.667 49.451,-14.167 62.201,-6.667 		"/>
		
			<polygon display="inline" opacity="0.5" fill="none" stroke="#CCCCCC" stroke-width="1.5" stroke-linecap="round" stroke-miterlimit="10" points="
			23.951,30.833 11.201,38.332 -1.549,30.833 -1.549,15.833 11.201,8.333 23.951,15.833 		"/>
		
			<polygon display="inline" opacity="0.5" fill="none" stroke="#CCCCCC" stroke-width="1.5" stroke-linecap="round" stroke-miterlimit="10" points="
			49.451,30.833 36.701,38.332 23.951,30.833 23.951,15.833 36.701,8.333 49.451,15.833 		"/>
		
			<polygon display="inline" opacity="0.5" fill="none" stroke="#CCCCCC" stroke-width="1.5" stroke-linecap="round" stroke-miterlimit="10" points="
			-1.549,30.833 -14.299,38.332 -27.049,30.833 -27.049,15.833 -14.299,8.333 -1.549,15.833 		"/>
		
			<polygon display="inline" opacity="0.5" fill="none" stroke="#CCCCCC" stroke-width="1.5" stroke-linecap="round" stroke-miterlimit="10" points="
			74.951,30.833 62.201,38.332 49.451,30.833 49.451,15.833 62.201,8.333 74.951,15.833 		"/>
		
			<polygon display="inline" opacity="0.5" fill="none" stroke="#CCCCCC" stroke-width="1.5" stroke-linecap="round" stroke-miterlimit="10" points="
			11.201,53.332 -1.549,60.832 -14.299,53.332 -14.299,38.332 -1.549,30.833 11.201,38.332 		"/>
		
			<polygon display="inline" opacity="0.5" fill="none" stroke="#CCCCCC" stroke-width="1.5" stroke-linecap="round" stroke-miterlimit="10" points="
			36.701,53.332 23.951,60.832 11.201,53.332 11.201,38.332 23.951,30.833 36.701,38.332 		"/>
		
			<polygon display="inline" opacity="0.5" fill="none" stroke="#CCCCCC" stroke-width="1.5" stroke-linecap="round" stroke-miterlimit="10" points="
			62.201,53.332 49.451,60.832 36.701,53.332 36.701,38.332 49.451,30.833 62.201,38.332 		"/>
		
			<polygon display="inline" opacity="0.5" fill="none" stroke="#CCCCCC" stroke-width="1.5" stroke-linecap="round" stroke-miterlimit="10" points="
			23.951,75.832 11.201,83.332 -1.549,75.832 -1.549,60.832 11.201,53.332 23.951,60.832 		"/>
		
			<polygon display="inline" opacity="0.5" fill="none" stroke="#CCCCCC" stroke-width="1.5" stroke-linecap="round" stroke-miterlimit="10" points="
			-1.549,75.832 -14.299,83.332 -27.049,75.832 -27.049,60.832 -14.299,53.332 -1.549,60.832 		"/>
		
			<polygon display="inline" opacity="0.5" fill="none" stroke="#CCCCCC" stroke-width="1.5" stroke-linecap="round" stroke-miterlimit="10" points="
			49.451,75.832 36.701,83.332 23.951,75.832 23.951,60.832 36.701,53.332 49.451,60.832 		"/>
		
			<polygon display="inline" opacity="0.5" fill="none" stroke="#CCCCCC" stroke-width="1.5" stroke-linecap="round" stroke-miterlimit="10" points="
			74.951,75.832 62.201,83.332 49.451,75.832 49.451,60.832 62.201,53.332 74.951,60.832 		"/>
	</g>
	<circle fill="#FFFFFF" cx="11.201" cy="-6.667" r="1.783"/>
	<path fill="#FFFFFF" d="M38.479-6.667c0,0.982-0.793,1.783-1.777,1.783s-1.777-0.801-1.777-1.783s0.793-1.783,1.777-1.783
		S38.479-7.649,38.479-6.667z"/>
	<path fill="#FFFFFF" d="M63.979-6.667c0,0.982-0.793,1.783-1.777,1.783s-1.777-0.801-1.777-1.783s0.793-1.783,1.777-1.783
		S63.979-7.649,63.979-6.667z"/>
	<circle fill="#FFFFFF" cx="-1.549" cy="-14.167" r="1.783"/>
	<path fill="#FFFFFF" d="M25.732-14.167c0,0.982-0.801,1.783-1.781,1.783c-0.982,0-1.783-0.801-1.783-1.783s0.801-1.783,1.783-1.783
		C24.932-15.95,25.732-15.149,25.732-14.167z"/>
	<path fill="#FFFFFF" d="M51.229-14.167c0,0.982-0.793,1.783-1.777,1.783s-1.777-0.801-1.777-1.783s0.793-1.783,1.777-1.783
		S51.229-15.149,51.229-14.167z"/>
	<circle fill="#FFFFFF" cx="-1.549" cy="30.833" r="1.783"/>
	<path fill="#FFFFFF" d="M25.732,30.833c0,0.982-0.801,1.783-1.781,1.783c-0.982,0-1.783-0.801-1.783-1.783s0.801-1.783,1.783-1.783
		C24.932,29.05,25.732,29.851,25.732,30.833z"/>
	<path fill="#FFFFFF" d="M51.229,30.833c0,0.982-0.793,1.783-1.777,1.783s-1.777-0.801-1.777-1.783s0.793-1.783,1.777-1.783
		S51.229,29.851,51.229,30.833z"/>
	<path fill="#FFFFFF" d="M0.234,60.832c0,0.984-0.801,1.777-1.783,1.777s-1.783-0.793-1.783-1.777s0.801-1.777,1.783-1.777
		S0.234,59.848,0.234,60.832z"/>
	<path fill="#FFFFFF" d="M25.732,60.832c0,0.984-0.801,1.777-1.781,1.777c-0.982,0-1.783-0.793-1.783-1.777s0.801-1.777,1.783-1.777
		C24.932,59.055,25.732,59.848,25.732,60.832z"/>
	<path fill="#FFFFFF" d="M51.229,60.832c0,0.984-0.793,1.777-1.777,1.777s-1.777-0.793-1.777-1.777s0.793-1.777,1.777-1.777
		S51.229,59.848,51.229,60.832z"/>
	<path fill="#FFFFFF" d="M76.729,60.832c0,0.984-0.793,1.777-1.777,1.777s-1.777-0.793-1.777-1.777s0.793-1.777,1.777-1.777
		S76.729,59.848,76.729,60.832z"/>
	<path fill="#FFFFFF" d="M0.234,75.832c0,0.984-0.801,1.777-1.783,1.777s-1.783-0.793-1.783-1.777s0.801-1.777,1.783-1.777
		S0.234,74.848,0.234,75.832z"/>
	<path fill="#FFFFFF" d="M25.732,75.832c0,0.984-0.801,1.777-1.781,1.777c-0.982,0-1.783-0.793-1.783-1.777s0.801-1.777,1.783-1.777
		C24.932,74.055,25.732,74.848,25.732,75.832z"/>
	<path fill="#FFFFFF" d="M51.229,75.832c0,0.984-0.793,1.777-1.777,1.777s-1.777-0.793-1.777-1.777s0.793-1.777,1.777-1.777
		S51.229,74.848,51.229,75.832z"/>
	<path fill="#FFFFFF" d="M76.729,75.832c0,0.984-0.793,1.777-1.777,1.777s-1.777-0.793-1.777-1.777s0.793-1.777,1.777-1.777
		S76.729,74.848,76.729,75.832z"/>
	<circle fill="#FFFFFF" cx="-14.299" cy="-6.667" r="1.783"/>
	<circle fill="#FFFFFF" cx="-14.299" cy="8.333" r="1.783"/>
	<circle fill="#FFFFFF" cx="-1.549" cy="15.833" r="1.783"/>
	<path fill="#FFFFFF" d="M25.732,15.833c0,0.982-0.801,1.783-1.781,1.783c-0.982,0-1.783-0.801-1.783-1.783s0.801-1.783,1.783-1.783
		C24.932,14.05,25.732,14.851,25.732,15.833z"/>
	<path fill="#FFFFFF" d="M51.229,15.833c0,0.982-0.793,1.783-1.777,1.783s-1.777-0.801-1.777-1.783s0.793-1.783,1.777-1.783
		S51.229,14.851,51.229,15.833z"/>
	<path fill="#FFFFFF" d="M76.729,30.833c0,0.982-0.793,1.783-1.777,1.783s-1.777-0.801-1.777-1.783s0.793-1.783,1.777-1.783
		S76.729,29.851,76.729,30.833z"/>
	<path fill="#FFFFFF" d="M76.729,15.833c0,0.982-0.793,1.783-1.777,1.783s-1.777-0.801-1.777-1.783s0.793-1.783,1.777-1.783
		S76.729,14.851,76.729,15.833z"/>
	<circle fill="#FFFFFF" cx="11.201" cy="8.333" r="1.783"/>
	<path fill="#FFFFFF" d="M38.479,8.333c0,0.982-0.793,1.783-1.777,1.783s-1.777-0.801-1.777-1.783s0.793-1.783,1.777-1.783
		S38.479,7.351,38.479,8.333z"/>
	<path fill="#FFFFFF" d="M63.979,8.333c0,0.982-0.793,1.783-1.777,1.783s-1.777-0.801-1.777-1.783s0.793-1.783,1.777-1.783
		S63.979,7.351,63.979,8.333z"/>
	<path fill="#FFFFFF" d="M-12.516,38.332c0,0.984-0.801,1.777-1.783,1.777s-1.783-0.793-1.783-1.777s0.801-1.777,1.783-1.777
		S-12.516,37.348-12.516,38.332z"/>
	<path fill="#FFFFFF" d="M12.984,38.332c0,0.984-0.801,1.777-1.783,1.777s-1.783-0.793-1.783-1.777s0.801-1.777,1.783-1.777
		S12.984,37.348,12.984,38.332z"/>
	<path fill="#FFFFFF" d="M38.479,38.332c0,0.984-0.793,1.777-1.777,1.777s-1.777-0.793-1.777-1.777s0.793-1.777,1.777-1.777
		S38.479,37.348,38.479,38.332z"/>
	<path fill="#FFFFFF" d="M63.979,38.332c0,0.984-0.793,1.777-1.777,1.777s-1.777-0.793-1.777-1.777s0.793-1.777,1.777-1.777
		S63.979,37.348,63.979,38.332z"/>
	<path fill="#FFFFFF" d="M12.984,83.332c0,0.984-0.801,1.777-1.783,1.777s-1.783-0.793-1.783-1.777s0.801-1.777,1.783-1.777
		S12.984,82.348,12.984,83.332z"/>
	<path fill="#FFFFFF" d="M38.479,83.332c0,0.984-0.793,1.777-1.777,1.777s-1.777-0.793-1.777-1.777s0.793-1.777,1.777-1.777
		S38.479,82.348,38.479,83.332z"/>
	<path fill="#FFFFFF" d="M63.979,83.332c0,0.984-0.793,1.777-1.777,1.777s-1.777-0.793-1.777-1.777s0.793-1.777,1.777-1.777
		S63.979,82.348,63.979,83.332z"/>
	<path fill="#FFFFFF" d="M-12.516,53.332c0,0.984-0.801,1.777-1.783,1.777s-1.783-0.793-1.783-1.777s0.801-1.777,1.783-1.777
		S-12.516,52.348-12.516,53.332z"/>
	<path fill="#FFFFFF" d="M12.984,53.332c0,0.984-0.801,1.777-1.783,1.777s-1.783-0.793-1.783-1.777s0.801-1.777,1.783-1.777
		S12.984,52.348,12.984,53.332z"/>
	<path fill="#FFFFFF" d="M38.479,53.332c0,0.984-0.793,1.777-1.777,1.777s-1.777-0.793-1.777-1.777s0.793-1.777,1.777-1.777
		S38.479,52.348,38.479,53.332z"/>
	<path fill="#FFFFFF" d="M63.979,53.332c0,0.984-0.793,1.777-1.777,1.777s-1.777-0.793-1.777-1.777s0.793-1.777,1.777-1.777
		S63.979,52.348,63.979,53.332z"/>
</g>
</svg>
