<?xml version="1.0" encoding="utf-8"?>
<!-- Generator: Adobe Illustrator 15.0.0, SVG Export Plug-In . SVG Version: 6.00 Build 0)  -->
<!DOCTYPE svg PUBLIC "-//W3C//DTD SVG 1.1//EN" "http://www.w3.org/Graphics/SVG/1.1/DTD/svg11.dtd">
<svg version="1.1" id="Layer_1" xmlns="http://www.w3.org/2000/svg" xmlns:xlink="http://www.w3.org/1999/xlink" x="0px" y="0px"
	 width="100px" height="100px" viewBox="0 0 100 100" enable-background="new 0 0 100 100" xml:space="preserve">
<g>
	<g>
		
			<radialGradient id="SVGID_1_" cx="397.585" cy="-1079.0361" r="106.4309" gradientTransform="matrix(1.3395 1.3395 1.3395 -1.3395 976.2457 -2017.9563)" gradientUnits="userSpaceOnUse">
			<stop  offset="0" style="stop-color:#FFFFFF"/>
			<stop  offset="0.054" style="stop-color:#F4F4F4"/>
			<stop  offset="0.4765" style="stop-color:#A5A5A5"/>
			<stop  offset="0.6703" style="stop-color:#868686"/>
		</radialGradient>
		<path fill="url(#SVGID_1_)" d="M86.827,26.505l-8.005,2.923c0,0-2.102-0.014-1.908,2.753c0.193,2.773,1.454,12.381,1.454,12.381
			s8.948-7.256,10.085-12.63C89.589,26.568,88.936,25.668,86.827,26.505z"/>
		
			<radialGradient id="SVGID_2_" cx="318.4941" cy="-6.7231" r="16.7624" gradientTransform="matrix(2.0717 0.0763 -0.0763 -2.0717 -574.4116 -9.6995)" gradientUnits="userSpaceOnUse">
			<stop  offset="0" style="stop-color:#FFFFFF"/>
			<stop  offset="0.1375" style="stop-color:#DDDDDD"/>
			<stop  offset="0.3167" style="stop-color:#B8B8B8"/>
			<stop  offset="0.4831" style="stop-color:#9C9C9C"/>
			<stop  offset="0.6299" style="stop-color:#8C8C8C"/>
			<stop  offset="0.7418" style="stop-color:#868686"/>
		</radialGradient>
		<path fill="url(#SVGID_2_)" d="M85.09,29.004l-5.488,2.216c0,0-1.418,0.056-1.373,1.919c0.045,1.863,0.601,8.305,0.601,8.305
			s6.26-5.171,7.188-8.829C86.949,28.962,86.536,28.374,85.09,29.004z"/>
		
			<linearGradient id="SVGID_3_" gradientUnits="userSpaceOnUse" x1="302.7158" y1="-243.002" x2="380.007" y2="-330.9451" gradientTransform="matrix(0.9931 -2.000000e-04 2.000000e-04 -0.9931 -263.5469 -249.1782)">
			<stop  offset="0" style="stop-color:#FFFFFF"/>
			<stop  offset="1" style="stop-color:#2D2E2E"/>
		</linearGradient>
		<path fill="url(#SVGID_3_)" d="M81.544,43.742c2.115,0.116,2.433-0.347,1.765-1.514c-0.66-1.161-7.568-14.882-9.172-18.155
			c-1.604-3.269,0.684-3.98,2.256-4.743c1.572-0.761,6.967-2.702,6.967-2.702s2.533-0.895-0.733-3.073
			c-4.726-3.143-14.87-7.688-21.351-1.207C54.84,18.784,58.573,30.56,51.129,38.91l10.497,10.495
			C67.919,44.377,79.686,43.641,81.544,43.742z"/>
		
			<radialGradient id="SVGID_4_" cx="121.3506" cy="-58.1279" r="42.3203" gradientTransform="matrix(1.8944 0 0 -1.8944 -169.5468 -91.0522)" gradientUnits="userSpaceOnUse">
			<stop  offset="0" style="stop-color:#FFFFFF"/>
			<stop  offset="0.0598" style="stop-color:#F4F4F4"/>
			<stop  offset="0.5272" style="stop-color:#A5A5A5"/>
			<stop  offset="0.7418" style="stop-color:#868686"/>
		</radialGradient>
		<path fill="url(#SVGID_4_)" d="M70.92,27.161c-2.124-4.596-4.164-6.49-7.975-11.716c-5.115,5.118-2.793,15.345-9.352,22.644
			l8.204,7.784c6.386-4.195,12.027-4.978,13.601-4.945C77.188,40.96,72.18,29.884,70.92,27.161z"/>
		
			<linearGradient id="SVGID_5_" gradientUnits="userSpaceOnUse" x1="301.1729" y1="-252.3291" x2="391.193" y2="-380.7849" gradientTransform="matrix(1 0 0 -1 -256.9023 -246.1172)">
			<stop  offset="0" style="stop-color:#FFFFFF"/>
			<stop  offset="1" style="stop-color:#353636"/>
		</linearGradient>
		<path fill="url(#SVGID_5_)" d="M71.268,27.507c-1.756-4.225-3.576-5.902-6.888-10.629c-5.116,5.117-3.485,14.652-10.087,21.909
			l7.625,7.624c6.262-4.318,11.534-4.841,13.018-4.898C76.622,41.445,72.305,30.01,71.268,27.507z"/>
		<path fill="#FFFFFF" d="M80.107,40.759c0,0-6.256-12.726-8.016-16.743c-1.758-4.02,2.652-4.495,9.542-7.344
			c0,0-9.985-6.855-16.415-2.953c-4.9,2.974-1.76,6.763-0.734,9.007c0.438,0.955,9.711,18.555,9.711,18.555L80.107,40.759z"/>
		
			<radialGradient id="SVGID_6_" cx="441.5615" cy="-211.0664" r="26.2905" gradientTransform="matrix(1.8921 0.043 -0.043 -1.8921 -766.4185 -414.9475)" gradientUnits="userSpaceOnUse">
			<stop  offset="0" style="stop-color:#FFFFFF"/>
			<stop  offset="1" style="stop-color:#757575"/>
		</radialGradient>
		<path fill="url(#SVGID_6_)" d="M79.602,41.096c0,0-6.256-12.726-8.015-16.742c-1.758-4.02,2.653-4.496,9.542-7.344
			c0,0-9.984-6.855-16.415-2.953c-4.901,2.974-2.153,7.567-1.128,9.811c0.438,0.955,10.104,17.75,10.104,17.75L79.602,41.096z"/>
		
			<radialGradient id="SVGID_7_" cx="276.8857" cy="-1107.2344" r="19.8642" gradientTransform="matrix(1.1916 1.1916 1.3395 -1.3395 1230.8899 -1786.3706)" gradientUnits="userSpaceOnUse">
			<stop  offset="0" style="stop-color:#FFFFFF"/>
			<stop  offset="0.1001" style="stop-color:#EDEDED"/>
			<stop  offset="0.2683" style="stop-color:#D6D6D6"/>
			<stop  offset="0.4481" style="stop-color:#C6C5C6"/>
			<stop  offset="0.6458" style="stop-color:#BCBBBC"/>
			<stop  offset="0.8956" style="stop-color:#B9B8B9"/>
		</radialGradient>
		<path opacity="0.56" fill="url(#SVGID_7_)" enable-background="new    " d="M63.438,45.207c11.069-4.945,15.354-3.918,16.84-3.975
			c-0.873-2.037-3.773-8.079-6.094-12.673c-3.934,4.607-9.904,10.599-14.301,13.095L63.438,45.207z"/>
		
			<linearGradient id="SVGID_8_" gradientUnits="userSpaceOnUse" x1="277.7227" y1="-274.4287" x2="282.9494" y2="-335.4626" gradientTransform="matrix(1 0 0 -1 -259.5918 -247.9854)">
			<stop  offset="0" style="stop-color:#FFFFFF"/>
			<stop  offset="0.0619" style="stop-color:#D4E7FD"/>
			<stop  offset="0.1477" style="stop-color:#A0C9FA"/>
			<stop  offset="0.2222" style="stop-color:#79B3F9"/>
			<stop  offset="0.2817" style="stop-color:#62A6F7"/>
			<stop  offset="0.3187" style="stop-color:#59A1F7"/>
			<stop  offset="0.4355" style="stop-color:#468FE2"/>
			<stop  offset="0.5824" style="stop-color:#317CCB"/>
			<stop  offset="0.9282" style="stop-color:#09478D"/>
			<stop  offset="1" style="stop-color:#003C80"/>
		</linearGradient>
		<path fill="url(#SVGID_8_)" d="M22.525,71.62c-3.383,0.001-6.125,2.743-6.125,6.126c-0.001,3.383,2.742,6.125,6.125,6.125
			c3.383,0,6.125-2.742,6.125-6.125S25.908,71.62,22.525,71.62z M22.524,82.131c-2.421-0.001-4.382-1.965-4.383-4.385
			c0-2.421,1.962-4.385,4.384-4.385c2.42,0.002,4.383,1.964,4.383,4.385S24.945,82.131,22.524,82.131z"/>
		
			<linearGradient id="SVGID_9_" gradientUnits="userSpaceOnUse" x1="264.4424" y1="-278.2378" x2="308.7179" y2="-322.5132" gradientTransform="matrix(1 0 0 -1 -256 -245)">
			<stop  offset="0" style="stop-color:#FFFFFF"/>
			<stop  offset="0.0701" style="stop-color:#D5E7FD"/>
			<stop  offset="0.1912" style="stop-color:#93C2FA"/>
			<stop  offset="0.2791" style="stop-color:#69AAF8"/>
			<stop  offset="0.3242" style="stop-color:#59A1F7"/>
			<stop  offset="0.4386" style="stop-color:#468FE2"/>
			<stop  offset="0.5824" style="stop-color:#317CCB"/>
			<stop  offset="0.8463" style="stop-color:#09478D"/>
			<stop  offset="0.9011" style="stop-color:#003C80"/>
			<stop  offset="0.9315" style="stop-color:#003B7E"/>
			<stop  offset="0.9482" style="stop-color:#003776"/>
			<stop  offset="0.9615" style="stop-color:#003168"/>
			<stop  offset="0.973" style="stop-color:#002854"/>
			<stop  offset="0.9834" style="stop-color:#001C3B"/>
			<stop  offset="0.9928" style="stop-color:#000D1D"/>
			<stop  offset="1" style="stop-color:#000000"/>
		</linearGradient>
		<path fill="url(#SVGID_9_)" d="M64.448,44.745l-8.818-8.758c-1.217-1.21-2.521-0.198-2.746,0.003
			c-7.875,7.109-36.988,33.999-39.281,37.052c-2.165,2.881-0.938,8.56,1.91,11.743c3.567,3.986,9.514,4.23,11.939,2.174
			c3.159-2.678,32.907-34.333,36.956-39.08C65.102,47.067,65.757,46.046,64.448,44.745z M22.206,83.295
			c-2.839,0-5.14-2.287-5.14-5.107c0-2.822,2.3-5.107,5.142-5.107c2.838-0.001,5.139,2.287,5.14,5.107
			C27.346,81.008,25.045,83.294,22.206,83.295z"/>
		
			<linearGradient id="SVGID_10_" gradientUnits="userSpaceOnUse" x1="316.2236" y1="-321.1685" x2="289.0593" y2="-294.0042" gradientTransform="matrix(1 0 0 -1 -256.9023 -246.1182)">
			<stop  offset="0" style="stop-color:#FFFFFF"/>
			<stop  offset="0.0701" style="stop-color:#D5E7FD"/>
			<stop  offset="0.1912" style="stop-color:#93C2FA"/>
			<stop  offset="0.2791" style="stop-color:#69AAF8"/>
			<stop  offset="0.3242" style="stop-color:#59A1F7"/>
			<stop  offset="0.4386" style="stop-color:#468FE2"/>
			<stop  offset="0.5824" style="stop-color:#317CCB"/>
			<stop  offset="0.8463" style="stop-color:#09478D"/>
			<stop  offset="0.9011" style="stop-color:#003C80"/>
			<stop  offset="0.9315" style="stop-color:#003B7E"/>
			<stop  offset="0.9482" style="stop-color:#003776"/>
			<stop  offset="0.9615" style="stop-color:#003168"/>
			<stop  offset="0.973" style="stop-color:#002854"/>
			<stop  offset="0.9834" style="stop-color:#001C3B"/>
			<stop  offset="0.9928" style="stop-color:#000D1D"/>
			<stop  offset="1" style="stop-color:#000000"/>
		</linearGradient>
		<path fill="url(#SVGID_10_)" d="M55.119,39.869c-0.729-0.727-1.555,0.122-1.736,0.303c-6.372,6.371-27.872,27.305-30.105,29.404
			c3.479,1.223,3.557,1.078,5.369,2.895c1.812,1.812,2.077,2.816,2.562,5.445c1.843-1.979,25.656-26.918,29.016-30.53
			c0.616-0.665,0.953-1.458,0.17-2.242L55.119,39.869z"/>
		
			<linearGradient id="SVGID_11_" gradientUnits="userSpaceOnUse" x1="252.5293" y1="-256.5732" x2="315.7036" y2="-319.7477" gradientTransform="matrix(1 0 0 -1 -256 -245)">
			<stop  offset="0" style="stop-color:#FFFFFF"/>
			<stop  offset="0.0619" style="stop-color:#D4E7FD"/>
			<stop  offset="0.1477" style="stop-color:#A0C9FA"/>
			<stop  offset="0.2222" style="stop-color:#79B3F9"/>
			<stop  offset="0.2817" style="stop-color:#62A6F7"/>
			<stop  offset="0.3187" style="stop-color:#59A1F7"/>
			<stop  offset="0.4355" style="stop-color:#468FE2"/>
			<stop  offset="0.5824" style="stop-color:#317CCB"/>
			<stop  offset="0.9282" style="stop-color:#09478D"/>
			<stop  offset="1" style="stop-color:#003C80"/>
		</linearGradient>
		<path fill="url(#SVGID_11_)" d="M55.186,41.54c-0.518-0.519-1.306,0.285-1.479,0.456c-6.047,6.048-27.547,27.39-27.547,27.39
			s2.083,0.903,3.372,2.192c1.686,1.686,2.191,3.878,2.191,3.878s23.587-24.884,26.808-28.282c0.59-0.625,0.964-1.325,0.404-1.883
			L55.186,41.54z"/>
		
			<linearGradient id="SVGID_12_" gradientUnits="userSpaceOnUse" x1="326.6152" y1="-258.1211" x2="334.0545" y2="-299.375" gradientTransform="matrix(1 0.0014 0.0014 -1 -257.0045 -247.2575)">
			<stop  offset="0" style="stop-color:#FFFFFF"/>
			<stop  offset="0.0565" style="stop-color:#E5E5E5"/>
			<stop  offset="0.1365" style="stop-color:#C8C8C8"/>
			<stop  offset="0.2259" style="stop-color:#B0B0B0"/>
			<stop  offset="0.3269" style="stop-color:#9E9E9E"/>
			<stop  offset="0.4462" style="stop-color:#919191"/>
			<stop  offset="0.6011" style="stop-color:#898989"/>
			<stop  offset="0.9231" style="stop-color:#878787"/>
		</linearGradient>
		<path fill="url(#SVGID_12_)" d="M65.219,14.227c3.723-2.191,11.32,0.079,14.049,0.887c-2.526-1.521-9.938-4.315-14.199-1.802
			c-2.655,1.565-4.279,3.652-3.844,5.317C61.125,17.233,63.042,15.51,65.219,14.227z"/>
		
			<linearGradient id="SVGID_13_" gradientUnits="userSpaceOnUse" x1="289.165" y1="-298.5659" x2="306.6416" y2="-316.0424" gradientTransform="matrix(1 0 0 -1 -256 -245)">
			<stop  offset="0" style="stop-color:#FFFFFF"/>
			<stop  offset="0.0619" style="stop-color:#D4E7FD"/>
			<stop  offset="0.1477" style="stop-color:#A0C9FA"/>
			<stop  offset="0.2222" style="stop-color:#79B3F9"/>
			<stop  offset="0.2817" style="stop-color:#62A6F7"/>
			<stop  offset="0.3187" style="stop-color:#59A1F7"/>
			<stop  offset="0.4355" style="stop-color:#468FE2"/>
			<stop  offset="0.5824" style="stop-color:#317CCB"/>
			<stop  offset="0.9282" style="stop-color:#09478D"/>
			<stop  offset="1" style="stop-color:#003C80"/>
		</linearGradient>
		<path opacity="0.6" fill="url(#SVGID_13_)" enable-background="new    " d="M54.492,36.286l-38.8,37.063
			c0,0-0.611,0.74-0.345,1.277c1.284-1.15,39.949-37.808,39.949-37.808L54.492,36.286z"/>
		
			<linearGradient id="SVGID_14_" gradientUnits="userSpaceOnUse" x1="317.1504" y1="-279.8496" x2="378.9249" y2="-247.2271" gradientTransform="matrix(1 0 0 -1 -256.9023 -246.1172)">
			<stop  offset="0" style="stop-color:#FFFFFF"/>
			<stop  offset="1" style="stop-color:#000000"/>
		</linearGradient>
		<polygon fill="url(#SVGID_14_)" points="74.73,41.555 73.059,41.592 62.221,19.651 62.404,17.124 		"/>
		
			<linearGradient id="SVGID_15_" gradientUnits="userSpaceOnUse" x1="-2650.7412" y1="277.1299" x2="-2650.7412" y2="240.1888" gradientTransform="matrix(0.7071 -0.7071 -0.7071 -0.7071 2080.3369 -1610.7128)">
			<stop  offset="0" style="stop-color:#FFFFFF"/>
			<stop  offset="0.0619" style="stop-color:#D4E7FD"/>
			<stop  offset="0.1477" style="stop-color:#A0C9FA"/>
			<stop  offset="0.2222" style="stop-color:#79B3F9"/>
			<stop  offset="0.2817" style="stop-color:#62A6F7"/>
			<stop  offset="0.3187" style="stop-color:#59A1F7"/>
			<stop  offset="0.4355" style="stop-color:#468FE2"/>
			<stop  offset="0.5824" style="stop-color:#317CCB"/>
			<stop  offset="0.9282" style="stop-color:#09478D"/>
			<stop  offset="1" style="stop-color:#003C80"/>
		</linearGradient>
		<path fill="url(#SVGID_15_)" d="M27.34,78.995c-0.168,1.349-1.686,4.215-4.889,4.215c-3.375,0-4.892-3.062-4.888-3.035
			c0.168,1.687,2.528,3.878,4.551,3.878C27.003,84.053,27.387,78.62,27.34,78.995z"/>
		
			<radialGradient id="SVGID_16_" cx="-555.9526" cy="821.1533" r="68.9668" gradientTransform="matrix(1.825 -0.7151 -0.4734 -1.207 1486.2052 621.8915)" gradientUnits="userSpaceOnUse">
			<stop  offset="0" style="stop-color:#FFFFFF"/>
			<stop  offset="0.0598" style="stop-color:#F4F4F4"/>
			<stop  offset="0.5272" style="stop-color:#A5A5A5"/>
			<stop  offset="0.7418" style="stop-color:#868686"/>
		</radialGradient>
		<path fill="url(#SVGID_16_)" d="M86.307,28.872c0.077,0.199-0.104,0.454-0.4,0.57l-6.932,2.718
			c-0.298,0.116-0.604,0.05-0.683-0.147l0,0c-0.076-0.197,0.104-0.452,0.401-0.57l6.933-2.716
			C85.924,28.609,86.23,28.673,86.307,28.872L86.307,28.872z"/>
	</g>
</g>
</svg>
